<?xml version="1.0" encoding="utf-8"?>
<!-- Generator: Adobe Illustrator 26.2.1, SVG Export Plug-In . SVG Version: 6.00 Build 0)  -->
<svg version="1.1" id="Layer_1" xmlns="http://www.w3.org/2000/svg" xmlns:xlink="http://www.w3.org/1999/xlink" x="0px" y="0px"
	 viewBox="0 0 16 16" style="enable-background:new 0 0 16 16;" xml:space="preserve">
<style type="text/css">
	.st0{fill:#F6D4B1;}
</style>
<path class="st0" d="M10.6,12.9c0-1-0.3-1.6-0.7-2c2.4-0.3,4.9-1.1,4.9-5.2c0-1.1-0.4-2.1-1.1-2.9c0.1-0.3,0.5-1.3-0.1-2.8
	c0,0-0.9-0.3-3,1.1c-1.7-0.5-3.6-0.5-5.4,0c-2-1.4-3-1.1-3-1.1C1.6,1.4,2,2.5,2.1,2.8C1.4,3.5,1,4.6,1,5.6c0,4.1,2.5,5,4.9,5.3
	c-0.4,0.4-0.6,0.9-0.7,1.4c-0.6,0.3-2.2,0.7-3.1-0.9c0,0-0.6-1-1.6-1.1c0,0-1.1,0-0.1,0.7c0,0,0.7,0.3,1.1,1.6c0,0,0.6,2.1,3.6,1.5
	c0,0.9,0,1.8,0,1.8h5.3C10.6,15.9,10.6,14.4,10.6,12.9z"/>
</svg>
