<?xml version="1.0" encoding="utf-8"?>
<!-- Generator: Adobe Illustrator 25.1.0, SVG Export Plug-In . SVG Version: 6.00 Build 0)  -->
<svg version="1.1" id="Layer_1" xmlns="http://www.w3.org/2000/svg" xmlns:xlink="http://www.w3.org/1999/xlink" x="0px" y="0px"
	 viewBox="0 0 100 100" style="enable-background:new 0 0 100 100;" xml:space="preserve">
<style type="text/css">
	.st0{fill:#FFFFFF;}
	.st1{fill:#222A2F;}
</style>
<path class="st0" d="M63,83.4c0-4.5-1.6-7.5-3.3-9C70.6,73.2,82,69.1,82,50.3c0.1-4.9-1.7-9.6-5-13.1c0.5-1.2,2.2-6.2-0.5-13
	c0,0-4.1-1.3-13.5,5c-8-2.2-16.5-2.2-24.5,0c-9.3-6.3-13.5-5-13.5-5c-2.7,6.7-1,11.7-0.5,13c-3.3,3.6-5.1,8.3-5,13.1
	c0,18.8,11.4,23,22.3,24.2c-1.8,1.7-2.9,4-3.1,6.5c-2.8,1.3-9.9,3.4-14.2-4c0,0-2.6-4.7-7.5-5c0,0-4.8,0-0.3,3c0,0,3.2,1.5,5.4,7.2
	c0,0,2.9,9.6,16.5,6.6c0.1,4.1,0.1,7.2,0.1,8.3c0,0.5-0.2,1.1-0.5,1.5c8.2,2.2,16.9,2,25-0.4C63,97.7,63,97.3,63,96.9
	C62.9,95.3,63,90,63,83.4z"/>
<path class="st1" d="M98.1,40.2L98.1,40.2C91.8,14,65.3-2.1,39,4.2S-3.4,37.1,2.9,63.4c4.2,17.3,17.5,31,34.6,35.7
	c0.3-0.2,0.5-0.4,0.7-0.6c0.3-0.4,0.5-0.9,0.5-1.5c0-1.2,0-4.2-0.1-8.3c-13.7,3-16.5-6.6-16.5-6.6C20,76.4,16.7,75,16.7,75
	c-4.4-3,0.3-3,0.3-3c4.9,0.3,7.5,5,7.5,5c4.4,7.4,11.4,5.3,14.2,4c0.2-2.5,1.3-4.8,3.1-6.6C31.1,73.2,19.6,69,19.6,50.3
	c-0.1-4.9,1.7-9.6,5-13.1c-0.5-1.2-2.2-6.2,0.5-13c0,0,4.1-1.3,13.4,5c8-2.2,16.5-2.2,24.5,0c9.3-6.3,13.4-5,13.4-5
	c2.7,6.7,1,11.7,0.5,13c3.3,3.6,5.1,8.3,5,13.1c0,18.8-11.4,22.9-22.3,24.1c1.8,1.5,3.3,4.5,3.3,9c0,6.6-0.1,11.8-0.1,13.4
	c0,0.4,0.1,0.8,0.3,1.2c0.2,0.3,0.4,0.6,0.7,0.8C89.2,91.7,104.3,65.8,98.1,40.2z"/>
</svg>
