<?xml version="1.0" encoding="utf-8"?>
<!-- Generator: Adobe Illustrator 25.3.1, SVG Export Plug-In . SVG Version: 6.00 Build 0)  -->
<svg version="1.1" id="Layer_1" xmlns="http://www.w3.org/2000/svg" xmlns:xlink="http://www.w3.org/1999/xlink" x="0px" y="0px"
	 viewBox="0 0 98 98" style="enable-background:new 0 0 98 98;" xml:space="preserve">
<style type="text/css">
	.st0{fill:#040D21;}
	.st1{fill:#FFFFFF;}
</style>
<path class="st0" d="M49,0C21.9,0,0,21.9,0,49s21.9,49,49,49s49-21.9,49-49S76.1,0,49,0z"/>
<path class="st1" d="M59.7,68.1c0-3.6-1.3-6-2.6-7.2c8.7-1,17.9-4.3,17.9-19.3c0.1-3.9-1.4-7.7-4-10.5c0.4-1,1.8-5-0.4-10.4
	c0,0-3.3-1-10.8,4c-6.4-1.8-13.2-1.8-19.7,0c-7.5-5.1-10.8-4-10.8-4C27.1,26,28.4,30,28.8,31c-2.6,2.9-4.1,6.7-4,10.5
	c0,15.1,9.1,18.5,17.9,19.4c-1.4,1.4-2.3,3.2-2.5,5.2c-2.2,1-7.9,2.7-11.4-3.2c0,0-2.1-3.8-6-4c0,0-3.9,0-0.2,2.4
	c0,0,2.6,1.2,4.3,5.8c0,0,2.3,7.7,13.2,5.3c0.1,3.3,0.1,5.8,0.1,6.7c0,0.4-0.2,0.9-0.4,1.2c6.6,1.8,13.6,1.6,20.1-0.3
	c-0.2-0.4-0.2-0.7-0.2-1C59.6,77.6,59.7,73.4,59.7,68.1z"/>
</svg>
