<?xml version="1.0" encoding="utf-8"?>
<!-- Generator: Adobe Illustrator 26.2.1, SVG Export Plug-In . SVG Version: 6.00 Build 0)  -->
<svg version="1.1" id="Layer_1" xmlns="http://www.w3.org/2000/svg" xmlns:xlink="http://www.w3.org/1999/xlink" x="0px" y="0px"
	 viewBox="0 0 16 16" style="enable-background:new 0 0 16 16;" xml:space="preserve">
<style type="text/css">
	.st0{fill:#FFFFFF;}
</style>
<g>
	<path class="st0" d="M0.1,2c0-1,0.8-1.8,1.9-1.8c1,0,1.8,0.9,1.8,1.8c0,1-0.8,1.9-1.8,1.9C0.9,3.9,0.1,3.1,0.1,2z M0.1,5h3.7v9.8
		H0.1V5z"/>
	<path class="st0" d="M15.9,8.5v6.2h-3.5V9.4c0-0.9-0.6-1.6-1.5-1.6c-0.8,0-1.4,0.6-1.4,1.5v5.5H5.8V5h3.7v1
		c0.6-0.7,1.6-1.2,2.8-1.2C14.4,4.7,15.9,6.3,15.9,8.5z"/>
</g>
</svg>
