<?xml version="1.0" encoding="utf-8"?>
<!-- Generator: Adobe Illustrator 25.3.1, SVG Export Plug-In . SVG Version: 6.00 Build 0)  -->
<svg version="1.1" id="Layer_1" xmlns="http://www.w3.org/2000/svg" xmlns:xlink="http://www.w3.org/1999/xlink" x="0px" y="0px"
	 viewBox="0 0 98 98" style="enable-background:new 0 0 98 98;" xml:space="preserve">
<style type="text/css">
	.st0{fill:#FFFFFF;}
	.st1{fill:#040D21;}
</style>
<path class="st0" d="M61.5,39h-25c-0.8,0-1.5,0.7-1.5,1.5s0.7,1.5,1.5,1.5h25c0.8,0,1.5-0.7,1.5-1.5S62.3,39,61.5,39z"/>
<path class="st0" d="M61.5,53h-25c-0.8,0-1.5,0.7-1.5,1.5s0.7,1.5,1.5,1.5h25c0.8,0,1.5-0.7,1.5-1.5S62.3,53,61.5,53z"/>
<path class="st0" d="M61.5,60h-25c-0.8,0-1.5,0.7-1.5,1.5s0.7,1.5,1.5,1.5h25c0.8,0,1.5-0.7,1.5-1.5S62.3,60,61.5,60z"/>
<path class="st0" d="M61.5,46h-25c-0.8,0-1.5,0.7-1.5,1.5s0.7,1.5,1.5,1.5h25c0.8,0,1.5-0.7,1.5-1.5S62.3,46,61.5,46z"/>
<path class="st0" d="M73.7,29.9c0,0,0-0.1-0.1-0.1c-0.1-0.2-0.2-0.4-0.4-0.5L62.7,18.7c-0.2-0.2-0.3-0.3-0.5-0.4l-0.1-0.1
	c-0.2-0.1-0.4-0.2-0.6-0.2c-0.2,0-0.3,0-0.5-0.1H34.2c-5.1,0-9.2,4.1-9.2,9.2v42.7c0,5.1,4.1,9.2,9.2,9.2h30.7
	c5.1,0,9.2-4.1,9.2-9.2V31c0-0.2,0-0.3,0-0.5C73.9,30.3,73.9,30.1,73.7,29.9z M69,69.8c0,2.3-1.9,4.2-4.2,4.2H34.2
	c-2.3,0-4.2-1.9-4.2-4.2V27.2c0-2.3,1.9-4.2,4.2-4.2h24.3v1.4c0,5.1,4.1,9.2,9.2,9.2H69V69.8z"/>
<path class="st1" d="M49,0C21.9,0,0,21.9,0,49s21.9,49,49,49s49-21.9,49-49S76.1,0,49,0z M25,69.8V27.2c0-5.1,4.1-9.2,9.2-9.2H61
	c0.2,0,0.3,0,0.5,0s0.4,0.1,0.6,0.2l0.1,0.1c0.2,0.1,0.4,0.2,0.5,0.4l10.5,10.5c0.2,0.2,0.3,0.3,0.4,0.5l0.1,0.1
	c0.1,0.2,0.2,0.4,0.2,0.6s0,0.3,0.1,0.5v38.8c0,5.1-4.1,9.2-9.2,9.2H34.2C29.1,79,25,74.9,25,69.8z"/>
<path class="st1" d="M58.5,24.4V23H34.2c-2.3,0-4.2,1.9-4.2,4.2v42.7c0,2.3,1.9,4.2,4.2,4.2h30.7c2.3,0,4.2-1.9,4.2-4.2V33.5h-1.3
	C62.6,33.5,58.5,29.4,58.5,24.4z M61.5,63h-25c-0.8,0-1.5-0.7-1.5-1.5s0.7-1.5,1.5-1.5h25c0.8,0,1.5,0.7,1.5,1.5S62.3,63,61.5,63z
	 M61.5,56h-25c-0.8,0-1.5-0.7-1.5-1.5s0.7-1.5,1.5-1.5h25c0.8,0,1.5,0.7,1.5,1.5S62.3,56,61.5,56z M61.5,49h-25
	c-0.8,0-1.5-0.7-1.5-1.5s0.7-1.5,1.5-1.5h25c0.8,0,1.5,0.7,1.5,1.5S62.3,49,61.5,49z M61.5,42h-25c-0.8,0-1.5-0.7-1.5-1.5
	s0.7-1.5,1.5-1.5h25c0.8,0,1.5,0.7,1.5,1.5S62.3,42,61.5,42z"/>
</svg>
