<svg id="Layer_1" data-name="Layer 1" xmlns="http://www.w3.org/2000/svg" viewBox="0 0 100 100"><defs><style>.cls-1{fill:#fff;isolation:isolate;}.cls-2{fill:#222a2f;}</style></defs><path class="cls-1" d="M63,83.44c0-4.51-1.56-7.49-3.32-9C70.57,73.21,82,69.08,82,50.28a18.82,18.82,0,0,0-5-13.13c.52-1.24,2.19-6.22-.48-12.95,0,0-4.1-1.33-13.45,5a46.34,46.34,0,0,0-24.51,0c-9.34-6.32-13.45-5-13.45-5-2.66,6.73-1,11.71-.48,13a18.91,18.91,0,0,0-5,13.13c0,18.75,11.43,23,22.3,24.18A10.51,10.51,0,0,0,38.81,81C36,82.26,28.94,84.42,24.57,77c0,0-2.58-4.67-7.49-5,0,0-4.78,0-.34,3,0,0,3.21,1.5,5.43,7.15,0,0,2.87,9.57,16.49,6.56.06,4.09.06,7.17.06,8.33a2.31,2.31,0,0,1-.48,1.48,46,46,0,0,0,25-.41,2.46,2.46,0,0,1-.28-1.19C62.92,95.27,63,90,63,83.44Z"/><path class="cls-2" d="M98.1,40.24l.07.1A49,49,0,1,0,37.55,99.11a2.12,2.12,0,0,0,.69-.64A2.31,2.31,0,0,0,38.72,97c0-1.16,0-4.24-.06-8.33C25,91.67,22.17,82.1,22.17,82.1,20,76.45,16.74,75,16.74,75c-4.44-3,.34-3,.34-3,4.91.34,7.49,5,7.49,5C28.94,84.42,36,82.26,38.81,81a10.51,10.51,0,0,1,3.12-6.55C31.06,73.23,19.63,69,19.63,50.28a18.91,18.91,0,0,1,5-13.13c-.51-1.24-2.18-6.22.48-12.95,0,0,4.11-1.32,13.45,5a46.34,46.34,0,0,1,24.51,0c9.35-6.33,13.45-5,13.45-5,2.67,6.73,1,11.71.48,13a18.82,18.82,0,0,1,5,13.13c0,18.8-11.43,22.93-22.34,24.15,1.76,1.52,3.32,4.5,3.32,9,0,6.55-.06,11.83-.06,13.43a2.46,2.46,0,0,0,.28,1.19,2.37,2.37,0,0,0,.67.81A49,49,0,0,0,98.1,40.24Z"/></svg>