<?xml version="1.0" encoding="utf-8"?>
<!-- Generator: Adobe Illustrator 25.3.1, SVG Export Plug-In . SVG Version: 6.00 Build 0)  -->
<svg version="1.1" id="Layer_1" xmlns="http://www.w3.org/2000/svg" xmlns:xlink="http://www.w3.org/1999/xlink" x="0px" y="0px"
	 viewBox="0 0 227.4 227.4" style="enable-background:new 0 0 227.4 227.4;" xml:space="preserve">
<style type="text/css">
	.st0{fill:#040D21;}
	.st1{fill:url(#SVGID_1_);}
	.st2{fill:url(#SVGID_2_);}
	.st3{fill:url(#SVGID_3_);}
	.st4{fill:url(#SVGID_4_);}
	.st5{fill:#FFFFFF;}
</style>
<rect class="st0" width="227.4" height="227.4"/>
<g>
	
		<radialGradient id="SVGID_1_" cx="207.9454" cy="29.2448" r="79.7145" gradientTransform="matrix(1.2633 0 0 1 -35.288 0)" gradientUnits="userSpaceOnUse">
		<stop  offset="0" style="stop-color:#043A8A"/>
		<stop  offset="1" style="stop-color:#043A8A;stop-opacity:0"/>
	</radialGradient>
	<ellipse class="st1" cx="227.4" cy="29.2" rx="100.7" ry="79.7"/>
</g>
<g>
	
		<radialGradient id="SVGID_2_" cx="-54.6508" cy="75.9121" r="157.9623" gradientTransform="matrix(1.0551 0 0 1.208 4.6957 0.4822)" gradientUnits="userSpaceOnUse">
		<stop  offset="0" style="stop-color:#043A8A"/>
		<stop  offset="1" style="stop-color:#043A8A;stop-opacity:0"/>
	</radialGradient>
	<ellipse class="st2" cx="-53" cy="92.2" rx="166.7" ry="190.8"/>
</g>
<g>
	
		<radialGradient id="SVGID_3_" cx="-14.4294" cy="-40.0721" r="79.7145" gradientTransform="matrix(1.6721 0 0 0.6766 47.3169 27.1137)" gradientUnits="userSpaceOnUse">
		<stop  offset="0" style="stop-color:#048A7F"/>
		<stop  offset="1" style="stop-color:#048A7F;stop-opacity:0"/>
	</radialGradient>
	<ellipse class="st3" cx="23.2" cy="0" rx="133.3" ry="53.9"/>
</g>
<g>
	
		<radialGradient id="SVGID_4_" cx="248.4658" cy="188.4992" r="123.0923" gradientTransform="matrix(1.171 0 0 1.075 -26.1614 -7.46)" gradientUnits="userSpaceOnUse">
		<stop  offset="0" style="stop-color:#DB469F"/>
		<stop  offset="1" style="stop-color:#DB469F;stop-opacity:0"/>
	</radialGradient>
	<ellipse class="st4" cx="264.8" cy="195.2" rx="144.1" ry="132.3"/>
</g>
<g>
	<path class="st5" d="M95.6,41.6v59.2H137l-1.1-14.2c-0.2-2.8,1.1-4.2,3.9-4.2h15.6c2.8,0,4.2,1.4,4.2,4.2v49.2
		c0,2.8-1.4,4.2-4.2,4.2h-15.6c-2.8,0-4.1-1.4-3.9-4.2l0.8-13.3H95.6v63.9h63.6l-1.1-19.7c-0.2-2.8,1.1-4.2,3.9-4.2h15.6
		c2.8,0,4.2,1.4,4.2,4.2v37.2c0,2.8-1.4,4.2-4.2,4.2H49.8c-2.8,0-4.2-1.4-4.2-4.2v-13.6c0-2.8,1.4-4.2,4.2-4.2h14.7V41.9H49.8
		c-2.8,0-4.2-1.4-4.2-4.2V23.6c0-2.8,1.4-4.2,4.2-4.2H172c2.8,0,4.2,1.4,4.2,4.2v37.2c0,2.8-1.4,4.2-4.2,4.2h-15.6
		c-2.8,0-4.1-1.4-3.9-4.2l1.1-19.2H95.6z"/>
</g>
</svg>
